<?xml version="1.0" encoding="UTF-8"?>
<!DOCTYPE svg PUBLIC "-//W3C//DTD SVG 1.1//EN" "http://www.w3.org/Graphics/SVG/1.1/DTD/svg11.dtd">
<!-- Creator: CorelDRAW 2019 (64-Bit) -->
<svg xmlns="http://www.w3.org/2000/svg" xml:space="preserve" width="215.9mm" height="279.4mm" version="1.1" style="shape-rendering:geometricPrecision; text-rendering:geometricPrecision; image-rendering:optimizeQuality; fill-rule:evenodd; clip-rule:evenodd"
viewBox="0 0 21590 27940"
 xmlns:xlink="http://www.w3.org/1999/xlink">
 <defs>
  <style type="text/css">
   <![CDATA[
    .fil1 {fill:#FEFEFE;fill-rule:nonzero}
    .fil0 {fill:url(#id0)}
   ]]>
  </style>
  <linearGradient id="id0" gradientUnits="userSpaceOnUse" x1="11736.8" y1="20607.59" x2="11736.8" y2="8120.35">
   <stop offset="0" style="stop-opacity:1; stop-color:#5FBB54"/>
   <stop offset="0.501961" style="stop-opacity:1; stop-color:#35A152"/>
   <stop offset="1" style="stop-opacity:1; stop-color:#5FBB54"/>
  </linearGradient>
 </defs>
 <g id="Capa_x0020_1">
  <metadata id="CorelCorpID_0Corel-Layer"/>
  <path class="fil0" d="M11736.76 8120.35c-3448.26,0 -6243.6,2795.34 -6243.6,6243.6 0,2019.41 1216.77,3703.89 1216.77,3703.89l-761.76 2272.84 2347.64 -766.02c0,0 1529.82,1032.93 3440.95,1032.93 3448.27,0 6243.68,-2795.37 6243.68,-6243.64 0,-3448.26 -2795.41,-6243.6 -6243.68,-6243.6z"/>
  <path class="fil1" d="M11736.76 20607.59c-1911.13,0 -3440.95,-1032.93 -3440.95,-1032.93l-2347.64 766.02 761.76 -2272.84c0,0 -1216.77,-1684.48 -1216.77,-3703.89 0,-3448.26 2795.34,-6243.6 6243.6,-6243.6 3448.27,0 6243.68,2795.34 6243.68,6243.6 0,3448.27 -2795.41,6243.64 -6243.68,6243.64zm0 -13676.52c-4105.06,0 -7432.86,3327.82 -7432.86,7432.88 0,2037.37 1078.63,3858.44 1078.63,3858.44l-1299.45 3958.05 4072.74 -1301.53c0,0 1511.97,917.93 3580.94,917.93 4105.1,0 7432.93,-3327.82 7432.93,-7432.89 0,-4105.06 -3327.83,-7432.88 -7432.93,-7432.88z"/>
  <path class="fil1" d="M8906.32 11127.99c0,0 200.84,-127.28 305.54,-127.28 104.67,0 585.54,0 585.54,0 0,0 157.03,27.34 229.13,190.96 72.15,163.58 565.82,1323.55 602.55,1413.05 36.72,89.47 132.54,310.87 -21.2,509.17 -153.75,198.33 -475.27,568.6 -475.27,568.6 0,0 -127.28,114.62 -16.97,297.08 110.32,182.42 498.3,784.33 1005.74,1239.06 507.4,454.73 1128.78,789.23 1438.49,891.08 309.77,101.85 377.64,-33.94 496.42,-186.69 118.86,-152.75 488.04,-619.51 488.04,-619.51 0,0 127.35,-186.69 377.65,-72.15 250.4,114.55 1468.15,704.4 1468.15,704.4 0,0 148.49,25.5 156.99,190.95 8.46,165.49 110.45,660.69 -330.94,1137.15 -441.4,476.46 -1380.11,696.95 -1824.54,572.7 -444.5,-124.25 -1913.96,-508.71 -2872.35,-1402.43 -958.39,-893.73 -1734.5,-1834.48 -2052,-2528.26 -317.5,-693.77 -299.86,-1105.36 -282.22,-1299.38 17.64,-194.03 119.59,-1093.12 721.25,-1478.5z"/>
 </g>
</svg>
